<?xml version="1.0" encoding="UTF-8" standalone="no"?>
<svg
   width="728"
   height="130"
   viewBox="0 0 728 130"
   fill="none"
   version="1.1"
   id="svg51"
   sodipodi:docname="cloud-hero-decoration.svg"
   inkscape:version="1.4 (86a8ad7, 2024-10-11)"
   xmlns:inkscape="http://www.inkscape.org/namespaces/inkscape"
   xmlns:sodipodi="http://sodipodi.sourceforge.net/DTD/sodipodi-0.dtd"
   xmlns="http://www.w3.org/2000/svg"
   xmlns:svg="http://www.w3.org/2000/svg">
  <defs
     id="defs51" />
  <sodipodi:namedview
     id="namedview51"
     pagecolor="#ffffff"
     bordercolor="#000000"
     borderopacity="0.25"
     inkscape:showpageshadow="2"
     inkscape:pageopacity="0.0"
     inkscape:pagecheckerboard="0"
     inkscape:deskcolor="#d1d1d1"
     inkscape:zoom="0.76923078"
     inkscape:cx="333.45"
     inkscape:cy="151.45"
     inkscape:window-width="1366"
     inkscape:window-height="745"
     inkscape:window-x="-8"
     inkscape:window-y="-8"
     inkscape:window-maximized="1"
     inkscape:current-layer="svg51" />
  <mask
     id="mask0_24443_1377"
     style="mask-type:luminance"
     maskUnits="userSpaceOnUse"
     x="109"
     y="63"
     width="197"
     height="71">
    <path
       d="M109.895 63.2648H305.982V133.27H109.895V63.2648Z"
       fill="white"
       id="path1" />
  </mask>
  <g
     mask="url(#mask0_24443_1377)"
     id="g2"
     style="fill:#ffffff"
     transform="matrix(1.01772,0,0,1.0317807,-6.4514572,-3.0273472)">
    <path
       d="m 260.176,80.4848 c -8.161,-10.4304 -20.842,-16.577 -34.497,-16.577 -13.617,0 -26.308,6.1466 -34.497,16.5392 -22.298,0.3972 -40.852,15.83 -43.528,35.547 -14.374,0.955 -28.927,-6.09 -29.069,-6.147 -1.91,-0.965 -4.236,-0.53 -5.74,1.059 -1.456,1.579 -1.749,3.943 -0.652,5.835 2.96,5.248 6.373,10.496 11.045,14.96 h 18.799 c -0.728,-0.246 -1.447,-0.502 -2.165,-0.795 -4.209,-1.702 -7.584,-4.019 -10.478,-6.922 6.903,1.683 15.414,2.771 23.688,1.315 2.326,-0.407 4.066,-2.431 4.066,-4.814 0.237,-16.615 15.915,-30.1561 34.904,-30.1561 1.456,0.2648 4.615,-0.643 5.579,-2.0142 6.213,-9.097 16.719,-14.525 28.048,-14.525 11.329,0 21.778,5.3901 28.057,14.4588 0.87,1.3239 2.373,2.0993 4,2.0993 0,0 0.057,0 0.095,0 20.057,0 36.095,13.7022 36.095,30.5162 0,3.82 -0.861,7.461 -2.365,10.837 h 10.507 c 1.068,-3.452 1.673,-7.083 1.673,-10.837 0,-21.665 -19.338,-39.4241 -43.565,-40.3792 z"
       fill="white"
       id="path2"
       style="fill:#ffffff" />
  </g>
  <mask
     id="mask1_24443_1377"
     style="mask-type:luminance"
     maskUnits="userSpaceOnUse"
     x="114"
     y="68"
     width="188"
     height="66">
    <path
       d="M114.736 68.1063H301.141V133.27H114.736V68.1063Z"
       fill="white"
       id="path3" />
  </mask>
  <g
     mask="url(#mask1_24443_1377)"
     id="g4"
     style="fill:#ffffff"
     transform="matrix(1.01772,0,0,1.0317807,-6.4514572,-3.0273472)">
    <path
       d="m 258.124,85.3831 c -0.123,0 -0.265,0.0473 -0.388,0.0473 -6.875,-9.986 -18.639,-16.596 -32.057,-16.596 -13.447,0 -25.268,6.6573 -32.086,16.6622 -0.492,-0.0095 -1.012,-0.1135 -1.541,-0.1135 -21.778,0 -39.518,15.6599 -39.783,35.0449 -17.249,2.998 -35.831,-6.118 -35.831,-6.118 4.105,7.244 8.379,13.145 14.535,17.39 h 165.95 c 1.248,-3.413 1.948,-7.063 1.948,-10.837 C 298.862,101.26 280.63,85.3831 258.124,85.3831 Z"
       fill="white"
       id="path4"
       style="fill:#ffffff" />
  </g>
  <path
     d="m 261.21093,85.439998 c 0.0865,0 0.14452,0 0.17302,0 0.85692,0 1.62733,-0.683039 1.68432,-1.590387 0.12518,-0.946452 -0.58722,-1.804997 -1.53981,-1.912406 -9.80675,-0.887847 -21.5665,4.351638 -23.63654,14.420786 -1.65482,8.186049 3.13763,16.274169 10.67384,18.069479 0.8559,0.20531 1.74132,0.31263 2.59824,0.31263 2.09752,0 4.16655,-0.60463 6.00557,-1.80562 2.71324,-1.7757 4.60925,-4.59453 5.31148,-7.96123 1.12661,-5.532093 -2.15553,-11.073992 -7.33267,-12.313161 -2.04053,-0.526827 -4.12889,-0.126806 -5.88039,1.014757 -1.89601,1.200064 -3.28215,3.229472 -3.75335,5.502897 -0.20253,0.946457 0.41319,1.893317 1.29861,2.088317 0.9536,0.11659 1.83902,-0.41064 2.04053,-1.32727 0.3277,-1.395282 1.0971,-2.595345 2.21354,-3.307583 1.04927,-0.663538 2.22372,-0.848847 3.32082,-0.585433 3.36763,0.829345 5.49467,4.507336 4.72527,8.205236 -0.48138,2.43912 -1.838,4.47896 -3.78286,5.74701 -1.79933,1.15147 -3.89685,1.49299 -5.9669,1.02457 -5.79286,-1.36608 -9.40169,-7.61041 -8.13158,-13.95236 1.62632,-7.922631 11.66409,-12.566882 19.97886,-11.630232 z"
     fill="white"
     id="path5"
     style="fill:#ffffff;stroke-width:1.02473" />
  <mask
     id="mask2_24443_1377"
     style="mask-type:luminance"
     maskUnits="userSpaceOnUse"
     x="192"
     y="104"
     width="42"
     height="30">
    <path
       d="M192.204 104.419H233.358V133.27H192.204V104.419Z"
       fill="white"
       id="path6" />
  </mask>
  <g
     mask="url(#mask2_24443_1377)"
     id="g7"
     style="fill:#ffffff"
     transform="matrix(1.01772,0,0,1.0317807,-6.4514572,-3.0273472)">
    <path
       d="m 231.457,120.75 c -3.102,-10.638 -11.499,-15.508 -23.84,-13.494 -4.936,0.794 -9.503,3.792 -12.198,8.057 -2.346,3.763 -3.017,8.104 -1.825,12.198 0.435,1.494 1.106,2.903 1.929,4.189 h 4.548 c -1.362,-1.446 -2.44,-3.224 -3.026,-5.219 -0.87,-3.064 -0.378,-6.346 1.447,-9.201 2.128,-3.414 5.749,-5.797 9.702,-6.421 7.234,-1.173 16.549,-0.208 19.774,10.931 0.907,3.121 0.728,6.516 -0.227,9.91 h 3.744 c 0.918,-3.706 0.993,-7.451 -0.028,-10.95 z"
       fill="white"
       id="path7"
       style="fill:#ffffff" />
  </g>
  <mask
     id="mask3_24443_1377"
     style="mask-type:luminance"
     maskUnits="userSpaceOnUse"
     x="211"
     y="118"
     width="11"
     height="16">
    <path
       d="M211.57 118.944H221.253V133.27H211.57V118.944Z"
       fill="white"
       id="path8" />
  </mask>
  <g
     mask="url(#mask3_24443_1377)"
     id="g9"
     style="fill:#ffffff"
     transform="matrix(1.01772,0,0,1.0317807,-6.4514572,-3.0273472)">
    <path
       d="m 219.239,125.506 c -0.236,-0.52 -1.456,-3.347 -4.009,-4.907 -0.87,-0.549 -1.986,-0.294 -2.469,0.595 -0.558,0.851 -0.264,1.967 0.606,2.497 1.532,0.974 2.439,3.045 2.468,3.073 0.454,1.636 0.34,3.395 -0.331,4.936 h 3.848 c 0.521,-1.957 0.492,-4.094 -0.113,-6.194 z"
       fill="white"
       id="path9"
       style="fill:#ffffff" />
  </g>
  <mask
     id="mask4_24443_1377"
     style="mask-type:luminance"
     maskUnits="userSpaceOnUse"
     x="0"
     y="0"
     width="50"
     height="86">
    <path
       d="M0.957031 0.729431H49.3737V85.0521H0.957031V0.729431Z"
       fill="white"
       id="path10" />
  </mask>
  <g
     mask="url(#mask4_24443_1377)"
     id="g11"
     style="fill:#ffffff"
     transform="matrix(1.01772,0,0,1.0317807,-6.4514572,-3.0273472)">
    <path
       d="M 48.8912,42.0065 C 48.8912,20.9283 27.9358,3.50958 0.947266,0.95636 V 10.9707 C 22.0728,13.4104 37.9785,26.394 37.9785,42.0065 c 0,15.7355 -16.0853,28.7948 -37.031234,31.1683 v 9.9481 C 27.9453,80.5603 48.8912,63.1038 48.8912,42.0065 Z"
       fill="white"
       id="path11"
       style="fill:#ffffff" />
  </g>
  <path
     d="M 37.74344,40.314145 C 37.74344,21.346716 18.957449,5.6283427 -5.4874057,3.0817844 V 77.605172 C 18.957449,75.058531 37.74344,59.359679 37.74344,40.314145 Z"
     fill="white"
     id="path12"
     style="fill:#ffffff;stroke-width:1.02473" />
  <mask
     id="mask5_24443_1377"
     style="mask-type:luminance"
     maskUnits="userSpaceOnUse"
     x="0"
     y="26"
     width="190"
     height="108">
    <path
       d="M0.957031 26.9523H189.782V133.271H0.957031V26.9523Z"
       fill="white"
       id="path13" />
  </mask>
  <g
     mask="url(#mask5_24443_1377)"
     id="g14"
     style="fill:#ffffff"
     transform="matrix(1.01772,0,0,1.0317807,-6.4514572,-3.0273472)">
    <path
       d="M 162.727,100.296 C 157.725,86.1588 146.027,76.154 132.287,74.8112 129.677,51.9172 112.022,32.6924 89.4212,29.0422 69.856,25.8743 50.5744,35.0092 40.4655,51.9929 27.7467,50.7068 16.3612,57.2034 8.6164,70.0641 5.96861,70.2816 3.40593,70.6409 0.947266,71.1232 V 81.8373 C 4.3232,81.0335 7.96391,80.5039 11.841,80.3526 c 1.6265,-0.0946 3.1301,-1.078 3.9433,-2.6005 2.8748,-5.3334 11.0451,-17.447 25.2108,-15.1681 2.0898,0.5391 5.3523,-0.3498 6.3263,-2.3168 7.6691,-15.1775 24.0476,-23.6031 40.8043,-20.8891 19.5373,3.1679 34.4123,20.6622 34.7053,40.7003 0,1.4563 0.577,2.8558 1.626,3.8393 1.04,1.0213 2.44,1.4846 3.745,1.3806 1.825,-0.1702 3.395,-0.1229 4.898,0.1229 10.109,1.636 18.469,10.0143 21.268,21.3908 0.577,2.269 2.553,3.981 4.7,3.952 0.227,0 1.531,-0.075 1.796,-0.075 8.946,1.267 17.769,11.139 16.842,18.61 -0.113,0.851 -0.293,1.655 -0.511,2.411 h 10.1 c 0.047,-0.283 0.104,-0.548 0.142,-0.832 1.683,-13.144 -10.544,-28.265 -24.71,-30.582 z"
       fill="white"
       id="path14"
       style="fill:#ffffff" />
  </g>
  <mask
     id="mask6_24443_1377"
     style="mask-type:luminance"
     maskUnits="userSpaceOnUse"
     x="0"
     y="126"
     width="14"
     height="8">
    <path
       d="M0.957031 126.206H13.0612V133.27H0.957031V126.206Z"
       fill="white"
       id="path15" />
  </mask>
  <g
     mask="url(#mask6_24443_1377)"
     id="g16"
     style="fill:#ffffff"
     transform="matrix(1.01772,0,0,1.0317807,-6.4514572,-3.0273472)">
    <path
       d="M 0.947266,131.701 H 10.7535 c -3.45154,-0.993 -6.74236,-2.232 -9.806234,-3.66 z"
       fill="white"
       id="path16"
       style="fill:#ffffff" />
  </g>
  <mask
     id="mask7_24443_1377"
     style="mask-type:luminance"
     maskUnits="userSpaceOnUse"
     x="0"
     y="31"
     width="185"
     height="103">
    <path
       d="M0.957031 31.7937H184.941V133.27H0.957031V31.7937Z"
       fill="white"
       id="path17" />
  </mask>
  <g
     mask="url(#mask7_24443_1377)"
     id="g18"
     style="fill:#ffffff"
     transform="matrix(1.01772,0,0,1.0317807,-6.4514572,-3.0273472)">
    <path
       d="m 161.971,105.468 c -0.984,-0.16 -1.892,0.095 -2.847,0.067 C 155.701,91.7 145.535,82.1301 133.743,80.2388 131.71,79.9173 129.715,79.9078 127.701,80.0686 127.417,57.6759 111.209,37.8269 88.7971,34.2146 69.3359,31.0656 51.3876,41.1272 43.0187,57.7326 42.5648,57.6475 42.092,57.4584 41.6287,57.3922 28.0398,55.1888 17.5905,63.6996 11.5479,75.1134 7.84097,75.2742 4.28537,75.7281 0.947266,76.4563 V 131.691 H 182.245 c 0.114,-0.53 0.208,-1.069 0.274,-1.626 1.343,-10.544 -9.172,-22.762 -20.548,-24.597 z"
       fill="white"
       id="path18"
       style="fill:#ffffff" />
  </g>
  <path
     d="m 55.355186,54.20769 c -3.397251,0.55613 -6.380697,2.507432 -8.180331,5.317487 -1.559147,2.458734 -2.09803,5.395593 -1.559147,8.234847 0.231022,1.073259 1.174143,1.775695 2.155836,1.541583 1.000826,-0.204911 1.626418,-1.219666 1.385829,-2.292925 -0.3561,-1.795195 0,-3.668599 1.000826,-5.249184 1.241517,-1.941605 3.36845,-3.288079 5.793676,-3.678402 5.764773,-0.878043 11.404367,2.741752 12.472667,8.147044 0.529317,2.722251 -0.0289,5.639506 -1.655321,8.205648 -2.155836,3.385581 -5.793676,5.766312 -9.749147,6.410246 -8.690413,1.336672 -18.439458,-5.5127 -20.181387,-14.098766 -0.798808,-4.136925 1.058632,-10.264257 4.985199,-16.440392 5.148849,-8.039738 12.42453,-14.010961 18.150833,-14.93781 1.000826,-0.16591 1.655321,-1.151364 1.482004,-2.195319 -0.144313,-1.053757 -1.068199,-1.8148 -2.040224,-1.658692 -6.775267,1.09276 -14.840189,7.55181 -20.547155,16.538 -4.580962,7.122484 -6.592383,14.196269 -5.552986,19.435754 1.713026,8.722673 9.749045,15.767156 18.381753,17.181932 1.953615,0.312217 3.936134,0.341521 5.880183,0.039 4.937061,-0.800042 9.489221,-3.814905 12.14547,-8.049436 C 71.975775,73.184819 72.74568,69.223503 71.975775,65.4574 70.522572,58.051898 63.102478,52.997823 55.355186,54.20769 Z"
     fill="white"
     id="path19"
     style="fill:#ffffff;stroke-width:1.02473" />
  <mask
     id="mask8_24443_1377"
     style="mask-type:luminance"
     maskUnits="userSpaceOnUse"
     x="20"
     y="99"
     width="35"
     height="35">
    <path
       d="M20.3237 99.5774H54.2154V133.271H20.3237V99.5774Z"
       fill="white"
       id="path20" />
  </mask>
  <g
     mask="url(#mask8_24443_1377)"
     id="g21"
     style="fill:#ffffff"
     transform="matrix(1.01772,0,0,1.0317807,-6.4514572,-3.0273472)">
    <path
       d="m 51.4446,109.686 c -2.6099,-5.655 -8.0095,-9.39 -14.402,-9.8438 -6.1467,-0.3783 -11.6692,2.5158 -14.6953,7.7828 -1.7305,2.979 -2.2317,6.733 -1.3333,10.156 0.9267,3.3 2.9598,5.957 5.8629,7.556 2.9599,1.588 6.3831,1.919 9.3524,0.86 2.5532,-0.974 4.5296,-2.931 5.636,-5.503 0.435,-0.956 0,-2.071 -0.87,-2.506 -1.0496,-0.445 -1.9764,0 -2.383,0.917 -0.6714,1.645 -1.9764,2.922 -3.6123,3.508 -2.0521,0.757 -4.4351,0.539 -6.5533,-0.662 -1.948,-1.068 -3.3665,-2.884 -3.9528,-5.154 -0.6903,-2.411 -0.3499,-5.03 0.87,-7.13 2.3263,-4.094 6.6857,-6.335 11.5273,-6.023 5.1443,0.274 9.324,3.243 11.3572,7.659 1.5697,3.386 1.9196,8.303 0.9362,13.107 -0.6053,2.846 -2.1372,5.267 -4.2081,7.3 h 4.7944 c 1.3522,-1.901 2.3546,-4.038 2.8652,-6.421 1.1915,-5.664 0.7282,-11.499 -1.1915,-15.603 z"
       fill="white"
       id="path21"
       style="fill:#ffffff" />
  </g>
  <path
     d="m 124.87004,94.006976 c -3.39715,-1.063457 -6.7658,-0.663435 -9.51873,1.044059 -2.35704,1.502478 -4.01287,3.902709 -4.60926,6.751565 -0.23102,1.04416 0.3562,2.0976 1.3668,2.36174 1.0971,0.27238 1.953,-0.40034 2.12602,-1.43417 0.41421,-1.80561 1.47264,-3.356904 2.98395,-4.313055 1.88584,-1.170864 4.34058,-1.414776 6.70779,-0.692737 5.62087,1.834302 9.40272,7.679132 8.21911,13.035102 -0.52921,2.71256 -2.25221,5.02477 -4.73545,6.62506 -3.30047,2.06872 -7.62171,2.60526 -11.39439,1.3372 -8.45929,-2.71256 -14.72438,-13.34816 -12.92505,-21.856009 0.97193,-4.566249 4.96546,-9.444611 10.70133,-13.064511 6.4096,-4.029618 13.61811,-5.551702 18.76675,-3.824707 1.00144,0.302519 1.94487,-0.273215 2.24306,-1.297669 0.29819,-1.053759 -0.29819,-2.127017 -1.27011,-2.439233 -6.16942,-1.931803 -14.27251,-0.419523 -21.56753,4.185727 -6.60195,4.127225 -11.20306,9.942342 -12.395826,15.523242 -2.242037,10.57647 5.090636,23.20237 15.426596,26.50923 0.82843,0.24453 1.65583,0.45914 2.48324,0.60565 4.08106,0.65313 8.33411,-0.14651 11.78927,-2.29365 3.34931,-2.11721 5.64936,-5.32708 6.44827,-9.06418 1.54999,-7.3762 -3.31064,-15.269121 -10.84584,-17.698654 z"
     fill="white"
     id="path22"
     style="fill:#ffffff;stroke-width:1.02473" />
  <mask
     id="mask9_24443_1377"
     style="mask-type:luminance"
     maskUnits="userSpaceOnUse"
     x="424"
     y="63"
     width="195"
     height="71">
    <path
       d="M424.604 63.2648H618.27V133.27H424.604V63.2648Z"
       fill="white"
       id="path23" />
  </mask>
  <g
     mask="url(#mask9_24443_1377)"
     id="g24"
     style="fill:#ffffff"
     transform="matrix(1.01772,0,0,1.0317807,-6.4514572,-3.0273472)">
    <path
       d="m 616.719,116.75 c 1.107,-1.891 0.813,-4.255 -0.633,-5.834 -1.513,-1.589 -3.84,-2.034 -5.75,-1.06 -0.113,0.057 -14.695,7.102 -29.04,6.147 -2.667,-19.7259 -21.258,-35.1588 -43.557,-35.5559 -8.198,-10.3926 -20.851,-16.5298 -34.497,-16.5298 -13.655,0 -26.307,6.1372 -34.506,16.5771 -24.208,0.9456 -43.547,18.7047 -43.547,40.3696 0,3.754 0.587,7.385 1.674,10.837 h 10.497 c -1.494,-3.376 -2.355,-7.017 -2.355,-10.837 0,-16.814 16.029,-30.5161 36.114,-30.5161 h 0.066 c 1.627,0 3.14,-0.7754 4.01,-2.0993 6.269,-9.0592 16.719,-14.4588 28.047,-14.4588 11.32,0 21.826,5.4279 28.039,14.525 0.993,1.3712 4.142,2.279 5.588,2.0142 18.998,0 34.668,13.542 34.904,30.156 0,2.383 1.74,4.407 4.057,4.814 8.312,1.456 16.785,0.369 23.707,-1.315 -2.903,2.903 -6.279,5.22 -10.459,6.922 -0.709,0.294 -1.428,0.549 -2.156,0.795 h 18.762 c 4.671,-4.464 8.085,-9.712 11.035,-14.951 z"
       fill="white"
       id="path24"
       style="fill:#ffffff" />
  </g>
  <mask
     id="mask10_24443_1377"
     style="mask-type:luminance"
     maskUnits="userSpaceOnUse"
     x="429"
     y="68"
     width="185"
     height="66">
    <path
       d="M429.445 68.1063H613.428V133.27H429.445V68.1063Z"
       fill="white"
       id="path25" />
  </mask>
  <g
     mask="url(#mask10_24443_1377)"
     id="g26"
     style="fill:#ffffff"
     transform="matrix(1.01772,0,0,1.0317807,-6.4514572,-3.0273472)">
    <path
       d="m 612.492,114.31 c 0,0 -18.592,9.116 -35.84,6.118 -0.236,-19.385 -18.005,-35.0449 -39.783,-35.0449 -0.52,0 -1.059,0.104 -1.513,0.1135 -6.856,-10.0049 -18.629,-16.6622 -32.114,-16.6622 -13.419,0 -25.154,6.61 -32.057,16.596 -0.123,0 -0.246,-0.0473 -0.35,-0.0473 -22.535,0 -40.776,15.8769 -40.776,35.4709 0,3.783 0.681,7.423 1.948,10.846 h 165.96 c 6.146,-4.255 10.411,-10.146 14.525,-17.39 z"
       fill="white"
       id="path26"
       style="fill:#ffffff" />
  </g>
  <path
     d="m 467.40507,81.937412 c -0.95258,0.09762 -1.65481,0.965953 -1.53981,1.912406 0.0672,0.907348 0.82843,1.580584 1.71384,1.580584 0,0 0.0672,0 0.18217,0 8.26694,-0.926951 18.31489,3.717403 19.97988,11.630232 1.23144,6.342256 -2.36823,12.586586 -8.16109,13.952666 -2.06903,0.46843 -4.13907,0.1269 -5.9669,-1.02456 -1.95402,-1.25877 -3.31064,-3.30788 -3.79202,-5.74701 -0.76024,-3.69791 1.3668,-7.376207 4.73443,-8.205551 1.11644,-0.263414 2.30005,-0.0781 3.31065,0.585432 1.12661,0.712238 1.88685,1.922105 2.24305,3.307578 0.18217,0.916951 1.06759,1.444181 2.01101,1.326561 0.88542,-0.19501 1.53066,-1.14114 1.29963,-2.087601 -0.47222,-2.273323 -1.838,-4.302835 -3.72485,-5.502899 -1.77999,-1.141562 -3.83986,-1.541584 -5.91906,-1.014757 -5.13847,1.239169 -8.44911,6.781069 -7.32351,12.313477 0.7124,3.36567 2.60841,6.18552 5.33183,7.96123 1.82884,1.19067 3.88769,1.80561 6.0249,1.80561 0.82741,0 1.71283,-0.10732 2.6074,-0.30334 7.48737,-1.79427 12.28083,-9.89272 10.625,-18.079074 -2.06903,-10.069149 -13.8298,-15.308633 -23.63655,-14.410984 z"
     fill="white"
     id="path27"
     style="fill:#ffffff;stroke-width:1.02473" />
  <mask
     id="mask11_24443_1377"
     style="mask-type:luminance"
     maskUnits="userSpaceOnUse"
     x="494"
     y="104"
     width="42"
     height="30">
    <path
       d="M494.808 104.419H535.962V133.27H494.808V104.419Z"
       fill="white"
       id="path28" />
  </mask>
  <g
     mask="url(#mask11_24443_1377)"
     id="g29"
     style="fill:#ffffff"
     transform="matrix(1.01772,0,0,1.0317807,-6.4514572,-3.0273472)">
    <path
       d="m 533.503,115.313 c -2.677,-4.265 -7.263,-7.263 -12.199,-8.057 -12.322,-2.015 -20.729,2.865 -23.821,13.494 -1.021,3.499 -0.946,7.244 -0.038,10.95 h 3.736 c -0.956,-3.394 -1.126,-6.789 -0.208,-9.91 3.196,-11.139 12.539,-12.104 19.744,-10.931 3.953,0.624 7.613,3.007 9.693,6.42 1.863,2.866 2.336,6.138 1.466,9.202 -0.596,1.995 -1.664,3.773 -3.035,5.219 h 4.567 c 0.832,-1.286 1.494,-2.695 1.948,-4.189 1.154,-4.094 0.52,-8.435 -1.853,-12.198 z"
       fill="white"
       id="path29"
       style="fill:#ffffff" />
  </g>
  <mask
     id="mask12_24443_1377"
     style="mask-type:luminance"
     maskUnits="userSpaceOnUse"
     x="506"
     y="118"
     width="11"
     height="16">
    <path
       d="M506.912 118.944H516.595V133.27H506.912V118.944Z"
       fill="white"
       id="path30" />
  </mask>
  <g
     mask="url(#mask12_24443_1377)"
     id="g31"
     style="fill:#ffffff"
     transform="matrix(1.01772,0,0,1.0317807,-6.4514572,-3.0273472)">
    <path
       d="m 513.115,126.755 c 0,-0.019 0.927,-2.09 2.44,-3.064 0.86,-0.53 1.163,-1.655 0.633,-2.506 -0.51,-0.889 -1.626,-1.135 -2.496,-0.596 -2.553,1.57 -3.773,4.397 -4.01,4.917 -0.614,2.09 -0.633,4.237 -0.113,6.194 h 3.839 c -0.671,-1.551 -0.785,-3.3 -0.293,-4.945 z"
       fill="white"
       id="path31"
       style="fill:#ffffff" />
  </g>
  <mask
     id="mask13_24443_1377"
     style="mask-type:luminance"
     maskUnits="userSpaceOnUse"
     x="276"
     y="58"
     width="173"
     height="76">
    <path
       d="M276.932 58.4225H448.811V133.27H276.932V58.4225Z"
       fill="white"
       id="path32" />
  </mask>
  <g
     mask="url(#mask13_24443_1377)"
     id="g33"
     style="fill:#ffffff"
     transform="matrix(1.01772,0,0,1.0317807,-6.4514572,-3.0273472)">
    <path
       d="m 400.706,76.853 c -8.832,-10.7046 -22.544,-17.0026 -37.305,-17.0026 -14.686,0 -28.455,6.298 -37.277,17.012 -26.251,0.8795 -47.273,19.0736 -47.273,41.3526 0,4.719 0.955,9.258 2.686,13.485 h 10.903 c -2.411,-4.095 -3.773,-8.662 -3.773,-13.485 0,-17.352 17.645,-31.4517 39.783,-31.4517 1.683,-0.227 3.064,-0.7376 4.009,-2.0331 6.885,-9.3902 18.459,-15.0073 30.942,-15.0073 12.577,0 24.18,5.6454 31.036,15.1113 0.974,1.3428 4.198,1.948 5.636,1.8818 21.22,0 38.496,14.137 38.496,31.499 0,4.823 -1.333,9.39 -3.697,13.485 h 10.865 c 1.712,-4.227 2.648,-8.757 2.648,-13.485 0,-22.6384 -21.314,-41.0878 -47.679,-41.362 z"
       fill="white"
       id="path33"
       style="fill:#ffffff" />
  </g>
  <mask
     id="mask14_24443_1377"
     style="mask-type:luminance"
     maskUnits="userSpaceOnUse"
     x="281"
     y="63"
     width="163"
     height="71">
    <path
       d="M281.774 63.2648H443.97V133.27H281.774V63.2648Z"
       fill="white"
       id="path34" />
  </mask>
  <g
     mask="url(#mask14_24443_1377)"
     id="g35"
     style="fill:#ffffff"
     transform="matrix(1.01772,0,0,1.0317807,-6.4514572,-3.0273472)">
    <path
       d="m 400.074,81.7803 c -0.586,0 -1.116,0.1135 -1.683,0.1229 -7.442,-10.2885 -20.312,-17.116 -34.979,-17.116 -14.582,0 -27.405,6.7613 -34.894,17.012 -0.152,0 -0.293,-0.0189 -0.407,-0.0189 -24.52,0 -44.369,16.3406 -44.369,36.4447 0,4.766 1.116,9.315 3.13,13.476 h 153.534 c 1.976,-4.161 3.073,-8.71 3.073,-13.476 0,-20.1041 -19.471,-36.4447 -43.405,-36.4447 z"
       fill="white"
       id="path35"
       style="fill:#ffffff" />
  </g>
  <path
     d="m 321.38057,78.326902 c -1.00042,0.078 -1.71282,0.985455 -1.63547,2.009909 0.0957,1.014757 0.95258,1.668389 1.96318,1.668389 0.88542,-0.0683 1.77083,-0.117003 2.68474,-0.117003 12.348,0 26.68768,7.249393 29.20857,18.870233 1.02993,4.64405 0.23102,9.40572 -2.26138,13.41522 -2.50257,4.00021 -6.38008,6.78085 -10.93234,7.79612 -3.55185,0.82957 -7.18002,0.19502 -10.21181,-1.79529 -3.07962,-1.9707 -5.21581,-5.06397 -5.97605,-8.66387 -1.25078,-5.79654 2.30005,-11.513627 7.97791,-12.801501 2.07004,-0.478127 4.1869,-0.117106 6.01574,1.073259 1.80849,1.160752 3.07962,3.005582 3.55083,5.132082 0.22186,1.00495 1.25077,1.61989 2.13619,1.40528 0.97192,-0.22493 1.58866,-1.19997 1.38614,-2.20491 -0.67373,-3.10361 -2.50258,-5.74723 -5.13949,-7.444922 -2.62674,-1.697692 -5.71653,-2.234321 -8.7473,-1.561084 -3.69636,0.809741 -6.82382,3.073364 -8.83483,6.322346 -2.07004,3.25938 -2.72444,7.10277 -1.89601,10.86981 1.01059,4.56562 3.69534,8.49774 7.56369,11.01528 2.77227,1.7953 5.9384,2.70223 9.1432,2.70223 1.26095,0 2.53107,-0.13619 3.80118,-0.41889 5.49569,-1.25878 10.16295,-4.60587 13.17541,-9.42532 3.02161,-4.85969 4.02304,-10.59639 2.79058,-16.18699 -3.10811,-14.381784 -21.31716,-22.860544 -35.76268,-21.660378 z"
     fill="white"
     id="path36"
     style="fill:#ffffff;stroke-width:1.02473" />
  <path
     d="m 406.66856,82.0052 c 1.0106,-0.05861 1.89601,-0.673237 1.98252,-1.668492 0.0774,-1.024455 -0.64523,-1.931803 -1.63649,-2.009908 -14.38751,-1.248869 -32.68306,7.278696 -35.75251,21.63107 -1.23246,5.60041 -0.2412,11.31853 2.79059,16.17718 3.01245,4.85867 7.67972,8.20576 13.11739,9.45422 1.29963,0.29302 2.60842,0.42921 3.83986,0.42921 3.2048,0 6.38111,-0.90693 9.15236,-2.71254 3.90804,-2.51652 6.57345,-6.43935 7.58405,-11.00601 0.8274,-3.77529 0.17301,-7.6197 -1.86752,-10.87806 -2.04969,-3.239692 -5.16798,-5.503315 -8.85315,-6.313159 -3.02262,-0.692738 -6.13074,-0.156109 -8.79717,1.551385 -2.59824,1.707391 -4.43624,4.341824 -5.13847,7.454724 -0.21168,0.97502 0.40404,1.9707 1.3953,2.20491 0.94343,0.17541 1.91535,-0.39105 2.14637,-1.39599 0.4712,-2.14611 1.71282,-3.98062 3.55083,-5.141473 1.82884,-1.180567 4.01287,-1.551387 6.03406,-1.073261 2.75293,0.614735 5.11099,2.292914 6.61212,4.712454 1.49198,2.41952 2.0212,5.27858 1.40446,8.06955 -0.80807,3.6195 -2.93511,6.71277 -6.01473,8.68347 -3.06028,1.97999 -6.70779,2.62486 -10.21078,1.79529 -4.56142,-1.01527 -8.42062,-3.79591 -10.93337,-7.81573 -2.49239,-4.0095 -3.3198,-8.76189 -2.25119,-13.39561 2.70408,-12.460089 19.11278,-20.002097 31.84547,-18.75323 z"
     fill="white"
     id="path37"
     style="fill:#ffffff;stroke-width:1.02473" />
  <mask
     id="mask15_24443_1377"
     style="mask-type:luminance"
     maskUnits="userSpaceOnUse"
     x="678"
     y="0"
     width="50"
     height="86">
    <path
       d="M678.791 0.729431H727.208V85.0521H678.791V0.729431Z"
       fill="white"
       id="path38" />
  </mask>
  <g
     mask="url(#mask15_24443_1377)"
     id="g39"
     style="fill:#ffffff"
     transform="matrix(1.01772,0,0,1.0317807,-6.4514572,-3.0273472)">
    <path
       d="m 690.971,42.0066 c 0,-15.4139 15.518,-28.2651 36.237,-30.9413 V 1.02264 c -26.63,2.80855 -47.15,20.10426 -47.15,40.98396 0,20.8987 20.52,38.2228 47.15,41.0408 V 73.0709 C 706.631,70.4704 690.971,57.5435 690.971,42.0066 Z"
       fill="white"
       id="path39"
       style="fill:#ffffff" />
  </g>
  <mask
     id="mask16_24443_1377"
     style="mask-type:luminance"
     maskUnits="userSpaceOnUse"
     x="683"
     y="5"
     width="45"
     height="76">
    <path
       d="M683.633 5.16473H727.208V80.2106H683.633V5.16473Z"
       fill="white"
       id="path40" />
  </mask>
  <g
     mask="url(#mask16_24443_1377)"
     id="g41"
     style="fill:#ffffff"
     transform="matrix(1.01772,0,0,1.0317807,-6.4514572,-3.0273472)">
    <path
       d="m 685.487,42.0068 c 0,18.2603 18.071,33.3527 41.731,36.0572 V 5.99689 C 703.558,8.71087 685.487,23.8222 685.487,42.0068 Z"
       fill="white"
       id="path41"
       style="fill:#ffffff" />
  </g>
  <mask
     id="mask17_24443_1377"
     style="mask-type:luminance"
     maskUnits="userSpaceOnUse"
     x="712"
     y="126"
     width="16"
     height="8">
    <path
       d="M712.683 126.206H727.208V133.27H712.683V126.206Z"
       fill="white"
       id="path42" />
  </mask>
  <g
     mask="url(#mask17_24443_1377)"
     id="g43"
     style="fill:#ffffff"
     transform="matrix(1.01772,0,0,1.0317807,-6.4514572,-3.0273472)">
    <path
       d="m 727.207,131.701 v -4.067 c -4.425,1.807 -9.276,3.206 -14.411,4.067 z"
       fill="white"
       id="path43"
       style="fill:#ffffff" />
  </g>
  <mask
     id="mask18_24443_1377"
     style="mask-type:luminance"
     maskUnits="userSpaceOnUse"
     x="540"
     y="26"
     width="188"
     height="108">
    <path
       d="M540.804 26.9523H727.209V133.271H540.804V26.9523Z"
       fill="white"
       id="path44" />
  </mask>
  <g
     mask="url(#mask18_24443_1377)"
     id="g45"
     style="fill:#ffffff"
     transform="matrix(1.01772,0,0,1.0317807,-6.4514572,-3.0273472)">
    <path
       d="m 552.493,125.762 c -1.041,-7.319 7.697,-16.851 16.643,-17.967 0.227,0 1.57,0.085 1.778,0.085 2.137,0.047 4.104,-1.589 4.643,-3.801 2.666,-11.0644 10.912,-19.1496 21.021,-20.6248 1.475,-0.2175 3.074,-0.2553 4.88,-0.0756 1.314,0.1513 2.723,-0.3027 3.716,-1.2861 1.05,-0.9362 1.598,-2.3074 1.627,-3.7353 0,-19.5842 14.695,-36.4922 34.156,-39.3291 16.71,-2.4398 33.211,5.9953 41.05,20.9364 0.993,1.9291 4.275,2.8464 6.364,2.3452 14.138,-2.0426 22.45,9.8914 25.353,15.1492 0.87,1.5035 2.355,2.487 4.01,2.5815 3.328,0.1892 6.515,0.6242 9.484,1.2672 V 70.9623 C 725.147,70.5746 723.01,70.2436 720.816,70.0545 712.901,57.364 701.431,50.8864 688.778,51.9739 678.471,35.255 659.076,26.0634 639.501,28.9192 c -22.535,3.2719 -39.925,21.8443 -42.289,44.1992 -13.702,1.1158 -25.258,10.7424 -30.081,24.5015 -14.109,2.0804 -26.204,16.7001 -24.341,29.5611 0.237,1.588 0.605,3.101 1.069,4.52 h 11.045 c -1.239,-1.58 -2.062,-3.565 -2.411,-5.939 z"
       fill="white"
       id="path45"
       style="fill:#ffffff" />
  </g>
  <mask
     id="mask19_24443_1377"
     style="mask-type:luminance"
     maskUnits="userSpaceOnUse"
     x="545"
     y="31"
     width="183"
     height="103">
    <path
       d="M545.645 31.7937H727.207V133.27H545.645V31.7937Z"
       fill="white"
       id="path46" />
  </mask>
  <g
     mask="url(#mask19_24443_1377)"
     id="g47"
     style="fill:#ffffff"
     transform="matrix(1.01772,0,0,1.0317807,-6.4514572,-3.0273472)">
    <path
       d="m 727.207,76.1347 c -2.95,-0.5863 -6.042,-1.0024 -9.248,-1.1726 -6.213,-11.2436 -16.757,-19.6787 -30.317,-17.7024 -0.473,0.0568 -0.936,0.2365 -1.371,0.3121 -8.568,-16.3312 -26.629,-26.4117 -46.034,-23.5842 -22.345,3.2435 -38.317,22.44 -38.383,44.3221 -1.977,-0.1986 -4.01,-0.2081 -6.015,0.0756 -11.726,1.6927 -21.816,10.9221 -25.059,24.4167 -0.955,0 -1.854,-0.265 -2.847,-0.114 -11.319,1.636 -21.711,13.466 -20.265,23.783 0.275,1.92 0.795,3.66 1.495,5.239 h 178.044 z"
       fill="white"
       id="path47"
       style="fill:#ffffff" />
  </g>
  <path
     d="m 669.60568,31.610663 c -0.97193,-0.165911 -1.88686,0.55613 -2.03035,1.600085 -0.1547,1.004954 0.4997,1.990408 1.51029,2.16612 5.72671,0.956151 13.05023,6.898072 18.32405,14.820703 4.01389,6.078529 5.96689,12.108358 5.1975,16.137977 -1.65583,8.371456 -11.32723,14.93781 -20.00838,13.503533 -3.96504,-0.653738 -7.66038,-3.053865 -9.84542,-6.381047 -1.64565,-2.546539 -2.25222,-5.395491 -1.74234,-8.039635 0.97192,-5.278487 6.58363,-8.732476 12.38667,-7.805524 2.41505,0.40972 4.55226,1.765996 5.7837,3.668599 1.06861,1.570782 1.42481,3.395383 1.06861,5.141879 -0.18319,1.082957 0.42337,2.048909 1.42379,2.263623 0.9821,0.243913 1.94385,-0.439125 2.12704,-1.47328 0.52921,-2.780751 -0.058,-5.659109 -1.63548,-8.069039 -1.82884,-2.780752 -4.84129,-4.712555 -8.24862,-5.297987 -7.72755,-1.287869 -15.12841,3.551492 -16.48503,10.781385 -0.70324,3.649098 0.12518,7.54211 2.40589,10.966796 2.68475,4.175925 7.29502,7.18109 12.2218,8.029935 1.98252,0.32202 3.93654,0.32202 5.89056,0.0293 8.62314,-1.26847 16.55322,-8.059238 18.20803,-16.557498 0.94343,-5.102878 -1.16427,-12.030355 -5.80304,-19.055337 -5.84171,-8.84948 -14.00281,-15.279329 -20.74927,-16.43059 z"
     fill="white"
     id="path48"
     style="fill:#ffffff;stroke-width:1.02473" />
  <mask
     id="mask20_24443_1377"
     style="mask-type:luminance"
     maskUnits="userSpaceOnUse"
     x="676"
     y="97"
     width="35"
     height="37">
    <path
       d="M676.37 97.1562H710.262V133.27H676.37V97.1562Z"
       fill="white"
       id="path49" />
  </mask>
  <g
     mask="url(#mask20_24443_1377)"
     id="g50"
     style="fill:#ffffff"
     transform="matrix(1.01772,0,0,1.0317807,-6.4514572,-3.0273472)">
    <path
       d="m 680.928,122.641 c -1.078,-4.709 -0.785,-9.522 0.728,-12.794 2.024,-4.303 6.156,-7.149 11.301,-7.357 4.841,-0.227 9.201,2.023 11.584,6.042 1.239,2.071 1.626,4.634 0.927,6.989 -0.53,2.194 -1.92,3.981 -3.84,4.983 -2.137,1.144 -4.501,1.334 -6.563,0.558 -1.683,-0.596 -2.959,-1.863 -3.659,-3.47 -0.407,-0.908 -1.371,-1.362 -2.393,-0.937 -0.86,0.416 -1.267,1.532 -0.86,2.45 1.135,2.543 3.168,4.463 5.759,5.456 2.931,1.078 6.354,0.794 9.277,-0.738 2.874,-1.522 4.888,-4.066 5.787,-7.291 0.87,-3.347 0.321,-7.007 -1.428,-9.938 -3.073,-5.173 -8.653,-8.0854 -14.809,-7.8017 -6.392,0.3782 -11.735,3.9437 -14.288,9.4277 -1.854,4 -2.251,9.703 -0.993,15.235 0.728,3.177 2.364,5.929 4.548,8.246 h 5.475 c -3.234,-2.317 -5.702,-5.353 -6.553,-9.06 z"
       fill="white"
       id="path50"
       style="fill:#ffffff" />
  </g>
  <path
     d="m 617.65514,78.736932 c -7.36218,-4.60525 -15.49478,-6.176136 -21.63469,-4.371138 -0.95258,0.292716 -1.50113,1.336774 -1.24162,2.370928 0.28904,1.004954 1.29963,1.570886 2.25222,1.297671 5.12931,-1.619586 12.34698,-0.02919 18.84308,3.980816 5.76539,3.619898 9.77826,8.43006 10.84686,12.9084 1.89602,8.342051 -4.22557,18.665021 -12.64619,21.182561 -3.79202,1.19996 -8.09392,0.61494 -11.40457,-1.45378 -2.51173,-1.58069 -4.29172,-3.8733 -4.82094,-6.54665 -1.24161,-5.24041 2.42523,-10.899007 8.03592,-12.625898 2.37638,-0.663538 4.83112,-0.409822 6.73629,0.77074 1.53981,0.965953 2.5789,2.488037 3.02161,4.254028 0.17403,1.01424 1.05945,1.68799 2.15655,1.43417 0.97192,-0.25382 1.55915,-1.27837 1.32812,-2.292811 -0.62589,-2.800152 -2.30004,-5.161382 -4.66828,-6.663964 -2.78143,-1.70739 -6.14906,-2.146517 -9.58488,-1.141563 -7.49755,2.273427 -12.22282,9.932228 -10.57717,17.143348 0.82741,3.66798 3.13763,6.84895 6.53478,8.94657 3.45516,2.15641 7.69905,3.00557 11.80861,2.39063 0.83758,-0.11763 1.66499,-0.32192 2.4639,-0.54684 10.28813,-3.10256 17.49664,-15.34774 15.11925,-25.709086 -1.22229,-5.473698 -5.91906,-11.210708 -12.56885,-15.328132 z"
     fill="white"
     id="path51"
     style="fill:#ffffff;stroke-width:1.02473" />
</svg>
