<svg width="40" height="40" viewBox="0 0 40 40" fill="none" xmlns="http://www.w3.org/2000/svg">
<path d="M19.9999 6.66666C26.7999 6.66666 32.4166 11.75 33.2333 18.3333H26.4666C25.7166 15.45 23.0999 13.3333 19.9999 13.3333C16.8999 13.3333 14.2833 15.45 13.5499 18.3333H6.7666C7.58327 11.75 13.1999 6.66666 19.9999 6.66666Z" fill="#EF171C"/>
<path d="M19.6667 3C10.4667 3 3 10.4667 3 19.6667C3 28.8667 10.4667 36.3333 19.6667 36.3333C28.8667 36.3333 36.3333 28.8667 36.3333 19.6667C36.3333 10.4667 28.8667 3 19.6667 3ZM19.6667 6.33333C26.4667 6.33333 32.0833 11.4167 32.9 18H26.1333C25.3833 15.1167 22.7667 13 19.6667 13C16.5667 13 13.95 15.1167 13.2167 18H6.43333C7.25 11.4167 12.8667 6.33333 19.6667 6.33333ZM23 19.6667C23 21.5 21.5 23 19.6667 23C17.8333 23 16.3333 21.5 16.3333 19.6667C16.3333 17.8333 17.8333 16.3333 19.6667 16.3333C21.5 16.3333 23 17.8333 23 19.6667ZM19.6667 33C12.8667 33 7.25 27.9167 6.43333 21.3333H13.2C13.9333 24.2167 16.55 26.3333 19.65 26.3333C22.75 26.3333 25.3667 24.2167 26.1 21.3333H32.8667C32.0833 27.9167 26.4667 33 19.6667 33Z" fill="#181D27"/>
</svg>
